<svg id="Capa_1" data-name="Capa 1" xmlns="http://www.w3.org/2000/svg" viewBox="0 0 373 230">
    <title>green</title>
    <path d="M346.87,205.06,27,205c-9.06,0-18.43-1.6-26.22,5-.14-1.48-.4-2.95-.4-4.43q0-91.1,0-182.18C.37,22,.62,20.48.76,19,4.2,23.91,9,25.5,14.83,25.08c3.93-.29,7.9,0,11.85,0,7.33.06,14.66.17,22,.17H342.1c1.66,0,3.32-.14,5-.21,4.46,0,8.95-.34,13.37.05C366,25.59,370,23.56,373,19c.07,1.16.21,2.32.21,3.48q0,92.54,0,185.07c0,1.16-.14,2.32-.22,3.48-4.33-5-10-6.32-16.27-6C353.43,205.12,350.15,205,346.87,205.06Z" style="fill:#8cc63f"/>
    <path d="M26.68,25.09c-3.95,0-7.92-.3-11.85,0C9,25.5,4.2,23.91.76,19-.55,9.24,2.34,4.88,12.1,1.87c13.52-4.15,14.58-3.4,14.58,10.26Z" style="fill:#39b54a"/>
    <path d="M373,19c-2.94,4.57-7,6.6-12.53,6.11-4.42-.39-8.91-.06-13.37-.05,0-7,.14-14-.05-20.93-.09-3.34,1.12-4.57,4.35-4s6.3.69,9.32,1.49C370.92,4.29,373.79,8.49,373,19Z" style="fill:#39b54a"/>
    <path d="M.77,210c7.79-6.62,17.16-5,26.22-5-.11,7-.32,14-.27,21,0,3.07-1.06,4.16-4.12,3.79-3.47-.41-7-.63-10.3-1.8C1.63,224.22-1.28,220.68.77,210Z" style="fill:#39b54a"/>
    <path d="M346.87,205.06c3.28,0,6.56.06,9.83-.08,6.3-.28,11.94,1.07,16.27,6,.84,10.83-2.25,14.88-13.41,17.56-12.46,3-12.44,3-12.48-9.53C347.07,214.38,346.94,209.72,346.87,205.06Z" style="fill:#39b54a"/>
</svg>